<?xml version="1.0" encoding="utf-8"?>

<!DOCTYPE svg PUBLIC "-//W3C//DTD SVG 1.1//EN" "http://www.w3.org/Graphics/SVG/1.1/DTD/svg11.dtd">
<svg version="1.1" id="_x32_" xmlns="http://www.w3.org/2000/svg" xmlns:xlink="http://www.w3.org/1999/xlink" 
	 width="256px" height="256px" viewBox="0 0 256 256"  xml:space="preserve">
<style type="text/css">
</style>
<g><g><g>
<path fill="#FFFFFF" d="M174,11.6c-1.4,1.2-2.4,3.1-4.2,7.4c-1.2,3.2-2.8,6.9-3.5,8.3l-1.2,2.5l-3.7,0.4c-4.9,0.5-4.8,0.5-8.3-0.3c-2.7-0.7-3.5-1.3-9.4-7.2c-6.6-6.6-12.2-10.8-13.6-10.4c-2.4,0.9-2.5,8.4-0.3,21.2c1.7,9.9,2,10.6,6.7,19.2l2,3.6l-1.3,5.1c-1.7,6.5-2.7,15.7-2.2,20.5c0.3,3.5,0.3,3.8-1.2,5.7c-0.8,1.1-3.9,4.4-6.8,7.2c-5.1,5-5.3,5.3-6.4,9.2c-1.8,6.7-2.4,7.4-8.9,11.9c-4.2,2.9-6.6,5-8.3,7.4c-3.2,4.2-7.3,8.2-13.7,13.8c-6.3,5.4-17.8,17.6-21.6,23c-7.3,10.4-13.2,21.9-18.1,35.4l-2.4,6.6l0.8,4c0.6,3.3,0.7,5.1,0.2,9.6c-0.5,4.2-0.5,6.2,0,8c0.9,3.5,0.8,6.4-0.4,8.7c-0.9,1.6-0.9,2.3-0.5,3.5c1,2.9,2.8,3.7,7.6,3.7c5.3,0,17.2,0.8,29.3,2c8.4,0.8,9.2,0.8,10.5,0c0.7-0.5,1.5-1.5,1.7-2.2c0.4-1.7,2.3-1.8,6-0.2c2.4,1,4.2,1.2,23.2,1.7l20.5,0.5l1.1-1.3c0.6-0.8,2-1.9,3.1-2.5l2-1.2l0.6,2.3c0.7,3,2.2,5.8,3.2,6.3c1.4,0.7,18.7,1.2,20.3,0.6c2.1-0.8,2.2-1.8,0.6-6c-1.6-4.1-2.9-5.4-5.5-5.4c-2.8,0-5.1-3.3-8.5-12.5c-0.9-2.4-1.1-4.3-1.2-9.8c-0.1-3.7-0.3-9-0.5-11.7l-0.4-4.9l1.4,3.5c0.8,2,2.6,7.1,4.1,11.5c2.8,8.6,4.7,12.4,6.8,13.8c0.8,0.5,2.3,2.7,3.6,4.8c1.2,2.1,4,6.2,6,9.1l3.8,5.3l5.5-0.1c3,0,7.5-0.2,10-0.4c3.8-0.4,4.8-0.7,5.6-1.7c1.6-2,1.2-3.4-2-6.4l-2.9-2.8l-4.7,0.1l-4.7,0.2l-1.9-2.2c-2.4-2.8-7.7-11.7-8-13.7c-0.2-0.8-0.1-2.6,0.2-4c0.3-2.1,0.1-3.4-1.4-8c-0.9-3.1-2-7-2.3-8.7c-1.1-6.2-2.2-17.3-2.2-23.7c0-10.4,0.5-12.8,4.8-21.3c7.1-14.2,7.9-18.4,5.1-28.6c-3-11.7-4.8-32.4-3.5-41.4c0.4-2.8,0.4-4.8-0.1-6.7c-0.7-3.2-0.4-3.6,4-5.7c2.1-1,4.4-3,7.6-6.4c4.6-4.8,4.7-5,5-8.1c0.2-1.8,0.6-4.3,0.9-5.6c0.7-3.2,0-5-2.3-6.1c-2.2-1-7.7-2-11.7-2c-2.3,0-2.9-0.2-2.9-0.9c0-0.5-0.5-1.5-1.2-2.2c-1.2-1.2-1.2-1.9-1.5-10.6c-0.3-8.2-0.4-9.6-1.5-12C178.5,9.5,177,8.9,174,11.6z M141.6,192.8c1.1,2.9,4,16.6,4.4,21.2c0.5,5.6,1.4,9.4,2.4,10.6c0.9,1,2.9,5.4,3,6.3c0,0.4-0.4,0.3-1-0.3c-0.5-0.5-2.3-1.4-3.8-2c-2.7-0.9-3.1-0.9-7,0c-3.4,0.8-5.9,0.9-13.9,0.6c-10.9-0.3-13.6-0.8-14-2.8c-0.7-2.7,0.4-5.8,4.2-12.1c2.1-3.5,5-8.8,6.4-11.8l2.6-5.5l4.2-1.7c3.5-1.5,10-3.5,11.7-3.7C141,191.5,141.4,192.1,141.6,192.8z"/>
</g></g></g>
</svg>